<svg width="121" height="33" viewBox="0 0 121 33" fill="none" xmlns="http://www.w3.org/2000/svg">
<path d="M8.59741e-05 31.7939L11.4241 0.503943H15.0361L26.4601 31.7939H22.9321L20.2441 24.1499H6.25809L3.52809 31.7939H8.59741e-05ZM7.35009 20.9999H19.0681L12.7261 3.02394H13.7341L7.35009 20.9999ZM41.5525 32.2979C39.6205 32.2979 37.8705 31.8639 36.3025 30.9959C34.7625 30.0999 33.6005 28.8399 32.8165 27.2159L33.3205 26.7539V31.7939H30.1705V-5.59092e-05H33.3205V14.3219L32.8165 13.4399C33.7125 12.0119 34.9025 10.8779 36.3865 10.0379C37.8985 9.19794 39.6205 8.77794 41.5525 8.77794C43.6805 8.77794 45.5705 9.29594 47.2225 10.3319C48.9025 11.3399 50.2185 12.7259 51.1705 14.4899C52.1505 16.2539 52.6405 18.2699 52.6405 20.5379C52.6405 22.7779 52.1505 24.7939 51.1705 26.5859C50.2185 28.3499 48.9025 29.7499 47.2225 30.7859C45.5705 31.7939 43.6805 32.2979 41.5525 32.2979ZM41.3845 29.1479C42.8965 29.1479 44.2405 28.7699 45.4165 28.0139C46.6205 27.2579 47.5585 26.2359 48.2305 24.9479C48.9305 23.6319 49.2805 22.1619 49.2805 20.5379C49.2805 18.8859 48.9305 17.4159 48.2305 16.1279C47.5585 14.8399 46.6205 13.8179 45.4165 13.0619C44.2405 12.3059 42.8965 11.9279 41.3845 11.9279C39.8725 11.9279 38.5005 12.3059 37.2685 13.0619C36.0645 13.8179 35.0985 14.8539 34.3705 16.1699C33.6705 17.4579 33.3205 18.9139 33.3205 20.5379C33.3205 22.1619 33.6705 23.6319 34.3705 24.9479C35.0985 26.2359 36.0645 27.2579 37.2685 28.0139C38.5005 28.7699 39.8725 29.1479 41.3845 29.1479ZM68.7262 32.2979C66.5982 32.2979 64.6662 31.7939 62.9302 30.7859C61.1942 29.7499 59.8082 28.3499 58.7722 26.5859C57.7642 24.7939 57.2602 22.7639 57.2602 20.4959C57.2602 18.2559 57.7642 16.2539 58.7722 14.4899C59.7802 12.7259 61.1382 11.3399 62.8462 10.3319C64.5822 9.29594 66.5422 8.77794 68.7262 8.77794C70.9102 8.77794 72.8562 9.28194 74.5642 10.2899C76.3002 11.2979 77.6582 12.6839 78.6382 14.4479C79.6462 16.2119 80.1502 18.2279 80.1502 20.4959C80.1502 22.7919 79.6322 24.8359 78.5962 26.6279C77.5602 28.3919 76.1742 29.7779 74.4382 30.7859C72.7302 31.7939 70.8262 32.2979 68.7262 32.2979ZM68.7262 29.1479C70.2382 29.1479 71.5962 28.7699 72.8002 28.0139C74.0322 27.2579 74.9982 26.2219 75.6982 24.9059C76.4262 23.5899 76.7902 22.1199 76.7902 20.4959C76.7902 18.8719 76.4262 17.4159 75.6982 16.1279C74.9982 14.8399 74.0322 13.8179 72.8002 13.0619C71.5962 12.3059 70.2382 11.9279 68.7262 11.9279C67.2142 11.9279 65.8422 12.3059 64.6102 13.0619C63.4062 13.8179 62.4402 14.8399 61.7122 16.1279C60.9842 17.4159 60.6202 18.8719 60.6202 20.4959C60.6202 22.1199 60.9842 23.5899 61.7122 24.9059C62.4402 26.2219 63.4062 27.2579 64.6102 28.0139C65.8422 28.7699 67.2142 29.1479 68.7262 29.1479ZM93.6857 32.2979C92.1177 32.2979 90.6897 31.9339 89.4017 31.2059C88.1137 30.4499 87.0917 29.4139 86.3357 28.0979C85.6077 26.7539 85.2437 25.2139 85.2437 23.4779V9.28194H88.3937V23.0999C88.3937 24.3039 88.6317 25.3679 89.1077 26.2919C89.6117 27.1879 90.2977 27.8879 91.1657 28.3919C92.0617 28.8959 93.0837 29.1479 94.2317 29.1479C95.3797 29.1479 96.4017 28.8959 97.2977 28.3919C98.1937 27.8599 98.8937 27.1179 99.3977 26.1659C99.9017 25.1859 100.154 24.0239 100.154 22.6799V9.28194H103.304V31.7939H100.154V27.4259L100.868 27.5939C100.336 29.0499 99.4257 30.1979 98.1377 31.0379C96.8497 31.8779 95.3657 32.2979 93.6857 32.2979ZM118.392 32.0459C116.376 32.0459 114.822 31.4579 113.73 30.2819C112.638 29.1059 112.092 27.4259 112.092 25.2419V12.4319H107.934V9.28194H108.984C109.936 9.28194 110.692 8.97394 111.252 8.35794C111.812 7.71394 112.092 6.91594 112.092 5.96394V4.07394H115.242V9.28194H120.198V12.4319H115.242V25.2419C115.242 25.9979 115.354 26.6699 115.578 27.2579C115.802 27.8179 116.18 28.2659 116.712 28.6019C117.272 28.9379 118.014 29.1059 118.938 29.1059C119.162 29.1059 119.428 29.0919 119.736 29.0639C120.044 29.0359 120.31 29.0079 120.534 28.9799V31.7939C120.198 31.8779 119.82 31.9339 119.4 31.9619C118.98 32.0179 118.644 32.0459 118.392 32.0459Z" fill="white"/>
</svg>
